<svg width="24" height="24" viewBox="0 0 24 24" fill="none" xmlns="http://www.w3.org/2000/svg">
<path d="M10.4828 5.3977C11.337 4.5337 12.4397 3.95815 13.6369 3.75149C14.8342 3.5448 16.066 3.71733 17.1604 4.24495L14.2872 7.1407C14.0118 7.41903 13.8574 7.7947 13.8574 8.1862C13.8574 8.5777 14.0118 8.95341 14.2872 9.2317L14.9794 9.92958C15.1152 10.0668 15.2767 10.1757 15.4548 10.2501C15.6328 10.3244 15.8239 10.3627 16.0169 10.3627C16.2099 10.3627 16.4009 10.3244 16.579 10.2501C16.7571 10.1757 16.9186 10.0668 17.0543 9.92958L19.9276 7.03383C20.5116 8.26544 20.6546 9.66029 20.3326 10.9848C20.0106 12.3092 19.2433 13.4828 18.1591 14.3088C17.3034 14.9567 16.2857 15.3562 15.2178 15.4636C14.1499 15.5711 13.0731 15.3822 12.1054 14.9178L6.90682 20.1566C6.77114 20.2938 6.60963 20.4027 6.43158 20.4771C6.25353 20.5514 6.0625 20.5896 5.86957 20.5896C5.67663 20.5896 5.4856 20.5514 5.30755 20.4771C5.1295 20.4027 4.96799 20.2938 4.83232 20.1566L4.14007 19.4587C3.86452 19.1805 3.70996 18.8048 3.70996 18.4132C3.70996 18.0217 3.86452 17.6459 4.14007 17.3677L9.33944 12.1275C8.81568 11.0241 8.64445 9.78625 8.84902 8.58213C9.05362 7.37804 9.62407 6.26616 10.4828 5.3977Z" stroke="#426AB2" stroke-width="2" stroke-linecap="round" stroke-linejoin="round"/>
</svg>
