<svg width="20" height="20" viewBox="0 0 20 20" fill="none" xmlns="http://www.w3.org/2000/svg">
<mask id="mask0_706_50561" style="mask-type:alpha" maskUnits="userSpaceOnUse" x="0" y="0" width="20" height="20">
<rect width="20" height="20" fill="#E1E6E8"/>
</mask>
<g mask="url(#mask0_706_50561)">
<path d="M9.30011 12.6744L6.70093 9.85212C6.38436 9.50838 5.85991 8.80686 6.03485 8.36362C6.2098 7.92039 6.97584 8.00681 7.4257 8.00681H12.5741C13.0239 8.00681 13.7902 7.92036 13.9652 8.3636C14.1401 8.80683 13.6154 9.50838 13.2988 9.85212L10.6997 12.6744C10.5997 12.7829 10.4914 12.8643 10.3748 12.9186C10.2581 12.9729 10.1332 13 9.99989 13C9.8666 13 9.74164 12.9729 9.62501 12.9186C9.50838 12.8643 9.40008 12.7829 9.30011 12.6744Z" fill="#333333"/>
</g>
</svg>
