<svg width="30" height="30" viewBox="0 0 30 30" fill="none" xmlns="http://www.w3.org/2000/svg">
<path d="M13.3333 14.1667V19.1667M16.6667 14.1667V19.1667M20.8333 10.0001V21.6667C20.8333 22.1088 20.6577 22.5327 20.3452 22.8453C20.0326 23.1578 19.6087 23.3334 19.1667 23.3334H10.8333C10.3913 23.3334 9.96738 23.1578 9.65482 22.8453C9.34226 22.5327 9.16667 22.1088 9.16667 21.6667V10.0001M7.5 10.0001H22.5M11.6667 10.0001V8.33341C11.6667 7.89139 11.8423 7.46746 12.1548 7.1549C12.4674 6.84234 12.8913 6.66675 13.3333 6.66675H16.6667C17.1087 6.66675 17.5326 6.84234 17.8452 7.1549C18.1577 7.46746 18.3333 7.89139 18.3333 8.33341V10.0001" stroke="currentColor" stroke-width="1.2" stroke-linecap="round" stroke-linejoin="round"/>
</svg>
