<svg width="18" height="18" viewBox="0 0 18 18" fill="none" xmlns="http://www.w3.org/2000/svg">
<path d="M1.80283 15.9972C1.80289 16.1077 1.89241 16.1972 2.00283 16.1972H7.45029C7.56075 16.1972 7.65029 16.1076 7.65029 15.9972V15.7975C7.65029 15.6871 7.56075 15.5975 7.45029 15.5975H2.49993V10.9999C2.49993 10.8895 2.41039 10.7999 2.29993 10.7999L2.00039 10.7999C1.88989 10.7999 1.80034 10.8895 1.80039 11L1.80283 15.9972Z" fill="#959595"/>
<path d="M7.20068 15.5975H2.49993M2.49993 15.5975V10.9999C2.49993 10.8895 2.41039 10.7999 2.29993 10.7999L2.00039 10.7999C1.88989 10.7999 1.80034 10.8895 1.80039 11L1.80283 15.9972C1.80289 16.1077 1.89241 16.1972 2.00283 16.1972H7.45029C7.56075 16.1972 7.65029 16.1076 7.65029 15.9972V15.7975C7.65029 15.6871 7.56075 15.5975 7.45029 15.5975H2.49993Z" stroke="#959595" stroke-width="0.6"/>
<path d="M10.6773 10.8982C10.6773 11.0086 10.7668 11.0982 10.8773 11.0982H11.0769C11.1874 11.0982 11.2769 11.0086 11.2769 10.8982V6.50005C11.2769 6.38959 11.1874 6.30005 11.0769 6.30005H6.6788C6.56834 6.30005 6.4788 6.38959 6.4788 6.50005V6.69967C6.4788 6.81013 6.56834 6.89967 6.6788 6.89967H9.81648C9.99221 6.89967 10.0825 7.11005 9.96147 7.23744L2.41017 15.1846C2.33545 15.2632 2.33704 15.3871 2.41373 15.4638L2.55354 15.6036C2.63358 15.6836 2.76405 15.6813 2.84125 15.5985L8.47567 9.55467L10.3359 7.69447C10.4619 7.56848 10.6773 7.65771 10.6773 7.83589V10.8982Z" fill="#959595" stroke="#959595" stroke-width="0.6"/>
<path d="M2.00273 1.8028C1.89227 1.80281 1.80273 1.89235 1.80273 2.0028V8.8C1.80273 8.91045 1.89228 9 2.00273 9H2.20236C2.31282 9 2.40236 8.91045 2.40236 8.8V2.60243C2.40236 2.49198 2.4919 2.40243 2.60236 2.40243H15.3969C15.5074 2.40243 15.5969 2.49198 15.5969 2.60243V15.397C15.5969 15.5075 15.5074 15.597 15.3969 15.597H9.19936C9.0889 15.597 8.99936 15.6865 8.99936 15.797V15.9966C8.99936 16.1071 9.0889 16.1966 9.19936 16.1966H15.9965C16.107 16.1966 16.1965 16.1071 16.1965 15.9966V2.00225C16.1965 1.89179 16.107 1.80225 15.9965 1.80225L2.00273 1.8028Z" fill="#959595" stroke="#959595" stroke-width="0.6"/>
</svg>
