<svg width="13" height="17" viewBox="0 0 13 17" fill="none" xmlns="http://www.w3.org/2000/svg">
<path d="M0.962751 0C0.431223 0 0 0.422928 0 0.944467V16.0555C0 16.5771 0.431223 17 0.962751 17H12.037C12.5688 17 12.9998 16.5771 12.9998 16.0555V4.37362L8.35818 0H0.962751Z" fill="#F0F0F0"/>
<path d="M13 4.37362H9.32115C8.78938 4.37362 8.3584 3.95069 8.3584 3.42915V0L13 4.37362Z" fill="#C9C9C8"/>
<path d="M11.6191 5.42887C11.6191 5.59159 11.4845 5.72358 11.3184 5.72358H1.70076C1.53485 5.72358 1.40027 5.59159 1.40027 5.42887C1.40027 5.26615 1.53485 5.13416 1.70076 5.13416H11.3184C11.4845 5.13416 11.6191 5.26615 11.6191 5.42887Z" fill="#8F8F8F"/>
<path d="M11.6191 6.97642C11.6191 7.13914 11.4845 7.27113 11.3184 7.27113H1.70076C1.53485 7.27113 1.40027 7.13914 1.40027 6.97642C1.40027 6.8137 1.53485 6.6817 1.70076 6.6817H11.3184C11.4845 6.6817 11.6191 6.8137 11.6191 6.97642Z" fill="#8F8F8F"/>
<path d="M11.6191 8.45038C11.6191 8.6131 11.4845 8.7451 11.3184 8.7451H1.70076C1.53485 8.7451 1.40027 8.6131 1.40027 8.45038C1.40027 8.28767 1.53485 8.15567 1.70076 8.15567H11.3184C11.4845 8.15543 11.6191 8.28767 11.6191 8.45038Z" fill="#8F8F8F"/>
<path d="M11.6191 9.99793C11.6191 10.1607 11.4845 10.2926 11.3184 10.2926H1.70076C1.53485 10.2926 1.40027 10.1607 1.40027 9.99793C1.40027 9.83521 1.53485 9.70322 1.70076 9.70322H11.3184C11.4845 9.70298 11.6191 9.83521 11.6191 9.99793Z" fill="#8F8F8F"/>
<path d="M6.73519 11.2506H1.70076C1.53485 11.2506 1.40027 11.3826 1.40027 11.5453C1.40027 11.708 1.53485 11.84 1.70076 11.84H6.73519C6.90134 11.84 7.03593 11.708 7.03593 11.5453C7.03593 11.3826 6.90128 11.2506 6.73519 11.2506Z" fill="#8F8F8F"/>
</svg>
