<svg width="17" height="19" viewBox="0 0 17 19" fill="none" xmlns="http://www.w3.org/2000/svg">
<path d="M13.125 13.5938C12.7794 13.5938 12.5 13.8731 12.5 14.2188V17.5H1.25V3.75H12.5V8.825C12.5 9.17062 12.7794 9.45 13.125 9.45C13.4706 9.45 13.75 9.17062 13.75 8.825V3.125V0.625C13.75 0.279375 13.4706 0 13.125 0H0.625C0.279375 0 0 0.279375 0 0.625V3.125V18.125C0 18.4706 0.279375 18.75 0.625 18.75H13.125C13.4706 18.75 13.75 18.4706 13.75 18.125V14.2188C13.75 13.8731 13.4706 13.5938 13.125 13.5938ZM1.25 1.25H12.5V2.5H1.25V1.25Z" fill="white"/>
<path d="M16.0813 8.9475C15.845 8.69625 15.45 8.6825 15.1975 8.91813L8.94376 14.7688L6.05189 12.0625C5.80064 11.8263 5.40376 11.8388 5.16876 12.0913C4.93251 12.3425 4.94564 12.7381 5.19751 12.9744L8.51689 16.0813C8.63689 16.1938 8.79064 16.25 8.94439 16.25C9.09814 16.25 9.25126 16.1938 9.37189 16.0813L16.0525 9.83125C16.3044 9.59563 16.3169 9.2 16.0813 8.9475Z" fill="white"/>
<path d="M2.49038 6.375H5.25962C5.59992 6.375 5.875 6.1515 5.875 5.875C5.875 5.5985 5.59992 5.375 5.25962 5.375H2.49038C2.15008 5.375 1.875 5.5985 1.875 5.875C1.875 6.1515 2.15008 6.375 2.49038 6.375Z" fill="white"/>
<path d="M10.875 7.875C10.875 7.5985 10.5728 7.375 10.1989 7.375H2.55108C2.17721 7.375 1.875 7.5985 1.875 7.875C1.875 8.1515 2.17721 8.375 2.55108 8.375H10.1989C10.5728 8.375 10.875 8.151 10.875 7.875Z" fill="white"/>
<path d="M2.49038 9.375C2.15008 9.375 1.875 9.5985 1.875 9.875C1.875 10.1515 2.15008 10.375 2.49038 10.375H7.25962C7.59992 10.375 7.875 10.1515 7.875 9.875C7.875 9.5985 7.59992 9.375 7.25962 9.375H2.49038Z" fill="white"/>
</svg>
