<svg width="158" height="35" viewBox="0 0 158 35" fill="none" xmlns="http://www.w3.org/2000/svg">
<path d="M22.5149 10.7475C24.4956 8.76897 24.4956 5.56111 22.5149 3.58256C20.5342 1.60401 17.3229 1.604 15.3422 3.58256C13.3615 5.56111 13.3615 8.76897 15.3422 10.7475C17.3229 12.7261 20.5342 12.7261 22.5149 10.7475Z" fill="#328ACB"/>
<path d="M19.3045 24.6761C18.7463 25.3345 17.9965 25.8185 17.1511 25.9963C17.0434 26.019 16.936 26.036 16.8294 26.049C13.7964 26.4208 11.2229 23.026 10.8557 22.5155C10.8265 22.475 10.8118 22.4506 10.8112 22.4498L6.61562 17.4114C6.44808 17.2103 6.51896 16.9042 6.75907 16.7997C7.30337 16.5624 8.32789 16.3812 9.65887 17.3551C11.6793 18.8338 12.4518 19.1014 13.3808 19.1164C15.3351 19.1482 18.1986 15.6885 18.1986 15.6885L11.2844 10.1523C10.2111 9.29288 8.93682 8.70471 7.57608 8.50394C5.96559 8.26607 3.9259 8.46769 2.21023 10.2248C-1.22138 13.7394 -0.2459 17.455 2.34234 20.7824C4.54589 23.6151 10.7449 31.3026 12.5397 33.5261C13.1557 34.2893 14.0271 34.8183 14.9981 34.9613C15.8463 35.0862 16.8742 34.9449 17.8842 34.0755C20.261 32.0301 30.8167 12.9026 33.9668 7.3916L33.9163 7.42502C33.8897 7.46098 33.8658 7.49864 33.8369 7.53291L19.3045 24.6767V24.6761Z" fill="#1D489C"/>
<path d="M33.7424 5.43053C32.7715 4.89928 32.1469 5.60469 32.1469 5.60469C25.0493 12.5378 19.4192 16.8818 15.7285 19.4188L13.4668 20.9104C11.7412 21.9955 10.8105 22.4489 10.8105 22.4489L10.8108 22.4494C10.8114 22.4503 10.8261 22.4747 10.8553 22.5151C11.2225 23.026 13.7959 26.4205 16.829 26.0487C16.9359 26.0357 17.043 26.0187 17.1507 25.996C17.9961 25.8179 18.7459 25.3342 19.3041 24.6758L33.8365 7.53202C33.8654 7.49775 33.8895 7.46009 33.9159 7.42413C34.1084 7.16417 34.2402 6.86258 34.2722 6.54032C34.3108 6.15123 34.228 5.69559 33.7424 5.42996V5.43053Z" fill="#59C3E6"/>
<path d="M40.2812 10.7551V8.2793H55.2359C55.3101 8.2793 55.3844 8.30698 55.4589 8.36265C55.5331 8.41833 55.5704 8.50168 55.5704 8.61304V10.004C55.5704 10.3008 55.477 10.5003 55.2917 10.6021C55.1057 10.7042 54.8923 10.7551 54.6509 10.7551H49.7219V24.4974C49.7219 25.2393 49.5732 25.7958 49.2764 26.1664C48.9792 26.5377 48.5524 26.7225 47.9954 26.7225H47.0765C46.7425 26.7225 46.5007 26.644 46.3526 26.4862C46.2036 26.3287 46.1297 26.0828 46.1297 25.749V10.7551H40.2812Z" fill="#231815"/>
<path d="M68.1564 24.5801C68.1564 25.3033 68.0261 25.8416 67.7666 26.1934C67.5064 26.5459 67.1258 26.7219 66.6248 26.7219H65.8171C65.5384 26.7219 65.3295 26.6478 65.1906 26.4992C65.0514 26.3509 64.9817 26.1193 64.9817 25.8037V20.0453C64.9817 19.4888 64.9396 18.9464 64.8562 18.4176C64.7728 17.8889 64.6377 17.4209 64.4524 17.0127C64.2479 16.5864 63.9692 16.2479 63.617 15.9975C63.2641 15.7471 62.8185 15.6221 62.2803 15.6221C61.1662 15.6221 60.4187 16.021 60.0384 16.8183C59.6578 17.6159 59.4677 18.6267 59.4677 19.8506V26.4435H56.293V8.27832H59.4677V14.3705C59.8199 14.1478 60.2473 13.9534 60.7486 13.7864C61.2496 13.6194 61.8997 13.5357 62.6981 13.5357C63.8491 13.5357 64.782 13.7123 65.497 14.0641C66.2114 14.4166 66.764 14.8805 67.1541 15.4551C67.5439 16.0487 67.8083 16.7346 67.9478 17.5135C68.0873 18.2923 68.1567 19.109 68.1567 19.9613V24.5795L68.1564 24.5801Z" fill="#231815"/>
<path d="M74.3672 21.52H72.1951C72.362 22.1693 72.6129 22.6793 72.947 23.05C73.2814 23.4212 73.6614 23.7085 74.0888 23.9125C74.5159 24.0979 74.9662 24.2185 75.4395 24.2742C75.9128 24.3296 76.3724 24.3575 76.8179 24.3575C77.6906 24.3575 78.4563 24.265 79.1155 24.0792C79.7742 23.894 80.336 23.6341 80.8003 23.3003C80.8185 23.2822 80.8465 23.2631 80.8838 23.2447C80.9207 23.2265 80.9672 23.217 81.023 23.217C81.0972 23.217 81.1714 23.2542 81.2459 23.328C81.3201 23.4022 81.3571 23.4947 81.3571 23.6064V24.6356C81.3571 25.0253 81.2039 25.3498 80.8975 25.6091C80.5911 25.8691 80.1876 26.0822 79.6859 26.2492C79.2031 26.416 78.6461 26.5368 78.0152 26.611C77.3839 26.6851 76.7523 26.722 76.1214 26.722C75.1 26.722 74.1487 26.5785 73.2668 26.2906C72.3849 26.0033 71.6189 25.5722 70.9695 24.997C70.3195 24.4225 69.8089 23.7082 69.4379 22.8553C69.0662 22.0023 68.8809 21.0189 68.8809 19.9067C68.8809 19.1275 69.0064 18.3586 69.2567 17.5976C69.5077 16.8372 69.9204 16.1608 70.4962 15.5669C71.053 14.9738 71.7724 14.4868 72.6543 14.1066C73.5362 13.7267 74.6083 13.5361 75.8711 13.5361C76.8176 13.5361 77.6578 13.6615 78.3913 13.9115C79.1248 14.1622 79.7324 14.482 80.2153 14.8714C80.6978 15.2796 81.065 15.7294 81.3153 16.2206C81.566 16.7122 81.6911 17.2082 81.6911 17.7089C81.6911 18.2285 81.5889 18.7197 81.3848 19.1832C81.1803 19.6468 80.8089 20.0553 80.2707 20.4071C79.7321 20.7412 78.9897 21.0103 78.0429 21.2139C77.096 21.4182 75.8708 21.52 74.3668 21.52H74.3672ZM72.0556 19.6563H74.2C75.7039 19.6563 76.7988 19.5084 77.4858 19.2115C78.1725 18.915 78.5164 18.3767 78.5164 17.5979C78.5164 17.0233 78.2699 16.5362 77.7785 16.1376C77.2864 15.739 76.6319 15.5395 75.8153 15.5395C74.757 15.5395 73.8659 15.8828 73.1419 16.569C72.4177 17.2553 72.0556 18.2841 72.0556 19.6563Z" fill="#231815"/>
<path d="M100.267 10.7825C99.3011 10.7825 98.4148 10.9403 97.6074 11.2553C96.7997 11.5709 96.0987 12.0252 95.5047 12.6182C94.9104 13.2119 94.4508 13.9398 94.1263 14.802C93.8011 15.6645 93.6387 16.652 93.6387 17.7645C93.6387 18.8036 93.8011 19.7256 94.1263 20.5324C94.4508 21.3392 94.9104 22.0207 95.5047 22.5771C96.0987 23.1333 96.7997 23.5507 97.6074 23.829C98.4148 24.1071 99.3015 24.2461 100.267 24.2461C101.436 24.2461 102.425 24.0931 103.233 23.787C104.04 23.481 104.787 23.0687 105.474 22.5491C105.511 22.531 105.548 22.5071 105.586 22.4795C105.623 22.4515 105.669 22.4375 105.725 22.4375C105.799 22.4375 105.864 22.4795 105.92 22.5628C105.975 22.6462 106.003 22.7435 106.003 22.8549V23.467C106.003 24.1901 105.924 24.7008 105.766 24.997C105.608 25.2938 105.446 25.4977 105.279 25.6091C104.555 26.1098 103.714 26.4671 102.759 26.6799C101.802 26.8931 100.879 27 99.9878 27C98.5211 27 97.1797 26.7817 95.9637 26.3462C94.7477 25.9107 93.7034 25.2846 92.8307 24.4685C91.958 23.6712 91.2854 22.7022 90.8118 21.5616C90.3382 20.4211 90.1016 19.1552 90.1016 17.7642C90.1016 16.2995 90.3382 14.9642 90.8118 13.7584C91.2851 12.5533 91.958 11.5241 92.8307 10.6705C93.7034 9.81789 94.7477 9.15933 95.9637 8.69547C97.1797 8.23225 98.5211 8 99.9878 8C100.879 8 101.807 8.1069 102.773 8.31974C103.738 8.53321 104.573 8.89972 105.279 9.41861C105.446 9.56719 105.608 9.78512 105.766 10.0724C105.924 10.36 106.003 10.8468 106.003 11.5327V12.1168C106.003 12.3023 105.97 12.4321 105.905 12.5062C105.84 12.5803 105.78 12.6173 105.724 12.6173C105.687 12.6173 105.655 12.6131 105.627 12.6033C105.599 12.594 105.576 12.5711 105.557 12.5336C104.778 11.9215 103.993 11.4764 103.204 11.1983C102.415 10.9203 101.436 10.7812 100.266 10.7812L100.267 10.7825Z" fill="#231815"/>
<path d="M119.147 24.5801C119.147 25.3033 119.016 25.8416 118.757 26.1934C118.497 26.5459 118.116 26.7219 117.615 26.7219H116.807C116.529 26.7219 116.32 26.6478 116.181 26.4992C116.042 26.3509 115.972 26.1193 115.972 25.8037V20.0453C115.972 19.4888 115.93 18.9464 115.846 18.4176C115.763 17.8889 115.628 17.4209 115.443 17.0127C115.238 16.5864 114.959 16.2479 114.607 15.9975C114.254 15.7471 113.809 15.6221 113.27 15.6221C112.156 15.6221 111.409 16.021 111.029 16.8183C110.648 17.6159 110.458 18.6267 110.458 19.8506V26.4435H107.283V8.27832H110.458V14.3705C110.81 14.1478 111.238 13.9534 111.739 13.7864C112.24 13.6194 112.89 13.5357 113.688 13.5357C114.839 13.5357 115.772 13.7123 116.487 14.0641C117.202 14.4166 117.754 14.8805 118.144 15.4551C118.534 16.0487 118.799 16.7346 118.938 17.5135C119.078 18.2923 119.147 19.109 119.147 19.9613V24.5795L119.147 24.5801Z" fill="#231815"/>
<path d="M125.357 21.52H123.185C123.352 22.1693 123.603 22.6793 123.937 23.05C124.272 23.4212 124.652 23.7085 125.079 23.9125C125.506 24.0979 125.956 24.2185 126.43 24.2742C126.903 24.3296 127.363 24.3575 127.808 24.3575C128.681 24.3575 129.446 24.265 130.106 24.0792C130.764 23.894 131.326 23.6341 131.791 23.3003C131.809 23.2822 131.837 23.2631 131.874 23.2447C131.911 23.2265 131.957 23.217 132.013 23.217C132.087 23.217 132.162 23.2542 132.236 23.328C132.31 23.4022 132.347 23.4947 132.347 23.6064V24.6356C132.347 25.0253 132.194 25.3498 131.888 25.6091C131.581 25.8691 131.178 26.0822 130.676 26.2492C130.193 26.416 129.636 26.5368 129.005 26.611C128.374 26.6851 127.743 26.722 127.112 26.722C126.09 26.722 125.139 26.5785 124.257 26.2906C123.375 26.0033 122.609 25.5722 121.96 24.997C121.31 24.4225 120.799 23.7082 120.428 22.8553C120.056 22.0023 119.871 21.0189 119.871 19.9067C119.871 19.1275 119.997 18.3586 120.247 17.5976C120.498 16.8372 120.911 16.1608 121.486 15.5669C122.043 14.9738 122.763 14.4868 123.645 14.1066C124.526 13.7267 125.598 13.5361 126.861 13.5361C127.808 13.5361 128.648 13.6615 129.382 13.9115C130.115 14.1622 130.723 14.482 131.206 14.8714C131.688 15.2796 132.055 15.7294 132.306 16.2206C132.556 16.7122 132.681 17.2082 132.681 17.7089C132.681 18.2285 132.579 18.7197 132.375 19.1832C132.171 19.6468 131.799 20.0553 131.261 20.4071C130.722 20.7412 129.98 21.0103 129.033 21.2139C128.086 21.4182 126.861 21.52 125.357 21.52H125.357ZM123.046 19.6563H125.19C126.694 19.6563 127.789 19.5084 128.476 19.2115C129.163 18.915 129.507 18.3767 129.507 17.5979C129.507 17.0233 129.26 16.5362 128.769 16.1376C128.277 15.739 127.622 15.5395 126.806 15.5395C125.747 15.5395 124.856 15.8828 124.132 16.569C123.408 17.2553 123.046 18.2841 123.046 19.6563Z" fill="#231815"/>
<path d="M140.645 15.9016C140.088 15.9016 139.54 15.9849 139.002 16.152C138.463 16.3187 137.981 16.5789 137.554 16.9308C137.126 17.2648 136.788 17.6956 136.537 18.2244C136.287 18.7528 136.161 19.3789 136.161 20.1021C136.161 20.8252 136.287 21.4561 136.537 21.9937C136.788 22.5321 137.126 22.9771 137.554 23.329C137.981 23.6815 138.463 23.9411 139.002 24.1078C139.54 24.2749 140.088 24.3585 140.645 24.3585C141.369 24.3585 142.005 24.2659 142.552 24.0802C143.1 23.895 143.606 23.6351 144.07 23.3013C144.088 23.2832 144.116 23.2641 144.154 23.2457C144.19 23.2275 144.237 23.218 144.293 23.218C144.367 23.218 144.441 23.2552 144.516 23.329C144.59 23.4031 144.627 23.4957 144.627 23.6074V24.6366C144.627 25.0263 144.478 25.3508 144.181 25.6101C143.884 25.87 143.503 26.0832 143.039 26.2502C142.575 26.4169 142.069 26.5378 141.522 26.612C140.974 26.6861 140.45 26.723 139.949 26.723C138.909 26.723 137.962 26.5655 137.108 26.2502C136.254 25.9349 135.521 25.4899 134.908 24.915C134.295 24.3216 133.822 23.6214 133.488 22.8146C133.154 22.0081 132.986 21.1039 132.986 20.1024C132.986 19.2125 133.154 18.3736 133.488 17.5849C133.822 16.7968 134.295 16.0966 134.908 15.4845C135.521 14.8911 136.254 14.4184 137.108 14.0655C137.962 13.7137 138.909 13.5371 139.949 13.5371C140.45 13.5371 140.974 13.5836 141.522 13.6761C142.069 13.7694 142.575 13.8988 143.039 14.0655C143.503 14.2326 143.884 14.4461 144.181 14.7057C144.478 14.9656 144.627 15.2716 144.627 15.6235V16.653C144.627 16.7832 144.589 16.8802 144.516 16.9451C144.441 17.0103 144.367 17.0424 144.293 17.0424C144.237 17.0424 144.19 17.038 144.154 17.0284C144.116 17.0192 144.079 16.9963 144.042 16.9588C143.615 16.6435 143.123 16.3883 142.566 16.1939C142.009 15.9992 141.369 15.9019 140.645 15.9019L140.645 15.9016Z" fill="#231815"/>
<path d="M148.806 8.27896V18.3769C149.344 18.3769 149.878 18.2754 150.407 18.0709C150.936 17.8672 151.414 17.5796 151.841 17.2087C152.287 16.8377 152.667 16.4019 152.983 15.9014C153.298 15.4007 153.512 14.8538 153.624 14.2601L153.707 13.815H156.937L156.854 14.2601C156.649 15.3173 156.278 16.2816 155.74 17.153C155.201 18.025 154.468 18.7386 153.54 19.2951C154.654 19.7774 155.545 20.4216 156.213 21.2281C156.882 22.035 157.281 22.9299 157.411 23.9127L157.494 24.5804C157.494 25.3036 157.364 25.8419 157.104 26.1938C156.844 26.5463 156.464 26.7222 155.963 26.7222H155.155C154.876 26.7222 154.667 26.6481 154.529 26.4995C154.389 26.3512 154.32 26.1196 154.32 25.804L154.18 24.8582C154.05 24.0237 153.813 23.3238 153.47 22.7581C153.127 22.1924 152.705 21.7426 152.203 21.4088C151.72 21.0748 151.187 20.834 150.602 20.6854C150.017 20.5371 149.418 20.4627 148.806 20.4627V26.4435H145.631V8.27832H148.806V8.27896Z" fill="#231815"/>
</svg>
