<svg width="20" height="20" viewBox="0 0 20 20" fill="none" xmlns="http://www.w3.org/2000/svg">
<path d="M15.7388 6.46522L2.80817 6.46527C2.99176 6.98707 2.99176 7.55961 2.80814 8.08144L15.7388 8.08139C15.5552 7.55956 15.5552 6.98708 15.7388 6.46522Z" fill="#0062FF"/>
<path d="M4 7C4 8.1028 4.8972 9 6 9V5C4.8972 5 4 5.8972 4 7Z" fill="#0062FF"/>
<path d="M6.86177 5.19547C6.60067 5.07027 6.3084 5 6 5V9C7.1028 9 8 8.1028 8 7C8 6.69163 7.92973 6.3994 7.80457 6.1383C7.60727 5.72677 7.27327 5.3928 6.86177 5.19547Z" fill="#004EA4"/>
<path d="M2.80808 11.4652L15.7387 11.4653C15.5551 11.9871 15.5551 12.5596 15.7387 13.0814L2.80811 13.0814C2.99167 12.5596 2.99167 11.9871 2.80808 11.4652Z" fill="#0062FF"/>
<path d="M14.5464 12C14.5464 13.1028 13.6492 14 12.5464 14V10C13.6492 10 14.5464 10.8972 14.5464 12Z" fill="#0062FF"/>
<path d="M11.6846 10.1955C11.9457 10.0703 12.238 10 12.5464 10V14C11.4436 14 10.5464 13.1028 10.5464 12C10.5464 11.6916 10.6167 11.3994 10.7418 11.1383C10.9391 10.7268 11.2731 10.3928 11.6846 10.1955Z" fill="#004EA4"/>
</svg>
