<svg width="20" height="20" viewBox="0 0 20 20" fill="none" xmlns="http://www.w3.org/2000/svg">
<path d="M18.4211 3.42108H10V14.4737H18.4211V3.42108Z" fill="#006DF0"/>
<path d="M9.99991 3.42108H1.57886V14.4737H9.99991V3.42108Z" fill="#0052B4"/>
<path d="M20 14.4737H10V16.579H20V14.4737Z" fill="#0052B4"/>
<path d="M10 14.4737H0V16.579H10V14.4737Z" fill="#003778"/>
<path d="M16.8422 5H3.15796V14.4737H16.8422V5Z" fill="white"/>
<path d="M11.5789 8.1579H10V12.8947H11.5789V8.1579Z" fill="#FFDA44"/>
<path d="M14.7369 8.1579H13.158V12.8947H14.7369V8.1579Z" fill="#FF5023"/>
<path d="M13.1578 6.57898H11.5789V12.8948H13.1578V6.57898Z" fill="#FF9811"/>
<path d="M8.42103 11.3158H4.73682V12.8947H8.42103V11.3158Z" fill="#78B9EB"/>
<path d="M8.42103 8.1579H4.73682V9.73685H8.42103V8.1579Z" fill="#78B9EB"/>
</svg>
