<svg width="20" height="20" viewBox="0 0 20 20" fill="none" xmlns="http://www.w3.org/2000/svg">
<path d="M17.3217 15.0202C15.73 17.3763 13.0346 18.9253 9.97732 18.9253C5.0856 18.9253 1.12012 14.9598 1.12012 10.0681" fill="#006DF0"/>
<path d="M9.98123 12.6907C9.98123 12.6907 9.97729 16.7221 9.97729 18.9254C13.0345 18.9254 15.73 17.3763 17.3217 15.0203L9.98123 12.6907Z" fill="#0052B4"/>
<path d="M2.67822 4.97978C4.26985 2.62375 6.96535 1.07471 10.0226 1.07471C14.9143 1.07471 18.8798 5.04019 18.8798 9.93191" fill="#006DF0"/>
<path d="M9.96242 1.07568C6.93008 1.09593 4.25939 2.6393 2.67822 4.9798L9.96242 7.20628V1.07568Z" fill="#0052B4"/>
<path d="M9.98133 16.2439C13.3987 16.2439 16.169 13.4736 16.169 10.0563C16.169 6.63895 13.3987 3.86865 9.98133 3.86865C6.564 3.86865 3.7937 6.63895 3.7937 10.0563C3.7937 13.4736 6.564 16.2439 9.98133 16.2439Z" fill="white"/>
<path d="M10.825 6.3999H9.13745V10.9H10.825V6.3999Z" fill="#FFDA44"/>
<path d="M12.5125 9.21252H9.13745V10.9001H12.5125V9.21252Z" fill="#FF9811"/>
<path d="M5.89558 11.9381L0 13.6239L1.47271 7.62231L5.89558 11.9381Z" fill="#0052B4"/>
<path d="M14.1045 8.06207L20 6.37622L18.5274 12.3778L14.1045 8.06207Z" fill="#0052B4"/>
</svg>
