<svg width="35" height="35" viewBox="0 0 35 35" fill="none" xmlns="http://www.w3.org/2000/svg">
<path d="M22.5149 10.7475C24.4956 8.76897 24.4956 5.56111 22.5149 3.58256C20.5342 1.60401 17.3229 1.604 15.3422 3.58256C13.3615 5.56111 13.3615 8.76897 15.3422 10.7475C17.3229 12.7261 20.5342 12.7261 22.5149 10.7475Z" fill="#328ACB"/>
<path d="M19.3045 24.6761C18.7463 25.3345 17.9965 25.8185 17.1511 25.9963C17.0434 26.019 16.936 26.036 16.8294 26.049C13.7964 26.4208 11.2229 23.026 10.8557 22.5155C10.8265 22.475 10.8118 22.4506 10.8112 22.4498L6.61562 17.4114C6.44808 17.2103 6.51896 16.9042 6.75907 16.7997C7.30337 16.5624 8.32789 16.3812 9.65887 17.3551C11.6793 18.8338 12.4518 19.1014 13.3808 19.1164C15.3351 19.1482 18.1986 15.6885 18.1986 15.6885L11.2844 10.1523C10.2111 9.29288 8.93682 8.70471 7.57608 8.50394C5.96559 8.26607 3.9259 8.46769 2.21023 10.2248C-1.22138 13.7394 -0.2459 17.455 2.34234 20.7824C4.54589 23.6151 10.7449 31.3026 12.5397 33.5261C13.1557 34.2893 14.0271 34.8183 14.9981 34.9613C15.8463 35.0862 16.8742 34.9449 17.8842 34.0755C20.261 32.0301 30.8167 12.9026 33.9668 7.3916L33.9163 7.42502C33.8897 7.46098 33.8658 7.49864 33.8369 7.53291L19.3045 24.6767V24.6761Z" fill="#1D489C"/>
<path d="M33.7424 5.43053C32.7715 4.89928 32.1469 5.60469 32.1469 5.60469C25.0493 12.5378 19.4192 16.8818 15.7285 19.4188L13.4668 20.9104C11.7412 21.9955 10.8105 22.4489 10.8105 22.4489L10.8108 22.4494C10.8114 22.4503 10.8261 22.4747 10.8553 22.5151C11.2225 23.026 13.7959 26.4205 16.829 26.0487C16.9359 26.0357 17.043 26.0187 17.1507 25.996C17.9961 25.8179 18.7459 25.3342 19.3041 24.6758L33.8365 7.53202C33.8654 7.49775 33.8895 7.46009 33.9159 7.42413C34.1084 7.16417 34.2402 6.86258 34.2722 6.54032C34.3108 6.15123 34.228 5.69559 33.7424 5.42996V5.43053Z" fill="#59C3E6"/>
</svg>
