<svg width="20" height="20" viewBox="0 0 20 20" fill="none" xmlns="http://www.w3.org/2000/svg">
<mask id="mask0_641_2897" style="mask-type:luminance" maskUnits="userSpaceOnUse" x="0" y="0" width="20" height="20">
<path d="M19.4775 0H0V19.4771H19.4775V0Z" fill="white"/>
</mask>
<g mask="url(#mask0_641_2897)">
<path d="M7.32938 0.75H1.875C1.25368 0.75 0.75 1.25368 0.75 1.875V8.59912C0.75 9.22046 1.25368 9.72412 1.875 9.72412H7.32938C7.95071 9.72412 8.45438 9.22046 8.45438 8.59912V1.875C8.45438 1.25368 7.95071 0.75 7.32938 0.75Z" stroke="#333333" stroke-width="2" stroke-linecap="round" stroke-linejoin="round"/>
<path d="M17.6025 0.75H12.1481C11.5268 0.75 11.0231 1.25368 11.0231 1.875V3.477C11.0231 4.09834 11.5268 4.602 12.1481 4.602H17.6025C18.2238 4.602 18.7275 4.09834 18.7275 3.477V1.875C18.7275 1.25368 18.2238 0.75 17.6025 0.75Z" stroke="#426AB2" stroke-width="2" stroke-linecap="round" stroke-linejoin="round"/>
<path d="M17.6025 7.17035H12.1481C11.5268 7.17035 11.0231 7.67401 11.0231 8.29535V17.6025C11.0231 18.2238 11.5268 18.7275 12.1481 18.7275H17.6025C18.2238 18.7275 18.7275 18.2238 18.7275 17.6025V8.29535C18.7275 7.67401 18.2238 7.17035 17.6025 7.17035Z" stroke="#333333" stroke-width="2" stroke-linecap="round" stroke-linejoin="round"/>
<path d="M7.32938 12.3068H1.875C1.25368 12.3068 0.75 12.8104 0.75 13.4318V17.6021C0.75 18.2234 1.25368 18.7271 1.875 18.7271H7.32938C7.95071 18.7271 8.45438 18.2234 8.45438 17.6021V13.4318C8.45438 12.8104 7.95071 12.3068 7.32938 12.3068Z" stroke="#426AB2" stroke-width="2" stroke-linecap="round" stroke-linejoin="round"/>
</g>
</svg>
