<svg width="24" height="24" viewBox="0 0 24 24" fill="none" xmlns="http://www.w3.org/2000/svg">
<mask id="mask0_641_2876" style="mask-type:luminance" maskUnits="userSpaceOnUse" x="2" y="3" width="20" height="19">
<path d="M21.7496 3H2.25V21.0285H21.7496V3Z" fill="white"/>
</mask>
<g mask="url(#mask0_641_2876)">
<path d="M4.5495 9.94836H6.02063V15.1125H4.5495C4.13869 15.1125 3.74467 14.9493 3.4541 14.6589C3.16354 14.3685 3.0002 13.9746 3 13.5637V11.4979C3 11.0869 3.16325 10.6928 3.45384 10.4022C3.74443 10.1116 4.13854 9.94836 4.5495 9.94836Z" stroke="#426AB2" stroke-width="2" stroke-linecap="round" stroke-linejoin="round"/>
<path d="M19.4501 15.1136H17.979V9.94836H19.4501C19.8611 9.94836 20.2552 10.1116 20.5458 10.4022C20.8364 10.6928 20.9996 11.0869 20.9996 11.4979V13.5637C20.9997 13.7673 20.9597 13.9688 20.8818 14.1568C20.804 14.3449 20.6898 14.5157 20.5459 14.6596C20.402 14.8036 20.2312 14.9178 20.0432 14.9956C19.8552 15.0735 19.6536 15.1136 19.4501 15.1136Z" stroke="#426AB2" stroke-width="2" stroke-linecap="round" stroke-linejoin="round"/>
<path d="M6.021 15.1132V5.25073C6.021 4.8529 6.17902 4.47137 6.46035 4.19008C6.74163 3.90876 7.12316 3.75073 7.521 3.75073H16.479C16.8768 3.75073 17.2584 3.90876 17.5396 4.19008C17.821 4.47137 17.979 4.8529 17.979 5.25073V15.1132" stroke="#333333" stroke-width="2" stroke-linecap="round" stroke-linejoin="round"/>
<path d="M15.3968 19.2453H16.4299C16.8408 19.2453 17.235 19.0821 17.5256 18.7915C17.8161 18.5009 17.9794 18.1068 17.9794 17.6958V15.1132" stroke="#333333" stroke-width="2" stroke-linecap="round" stroke-linejoin="round"/>
<path d="M14.3636 18.2126H11.2646C10.6941 18.2126 10.2315 18.6751 10.2315 19.2457C10.2315 19.8163 10.6941 20.2788 11.2646 20.2788H14.3636C14.9342 20.2788 15.3968 19.8163 15.3968 19.2457C15.3968 18.6751 14.9342 18.2126 14.3636 18.2126Z" stroke="#426AB2" stroke-width="2" stroke-linecap="round" stroke-linejoin="round"/>
</g>
</svg>
