<svg width="24" height="24" viewBox="0 0 24 24" fill="none" xmlns="http://www.w3.org/2000/svg">
<path d="M10.4828 5.39776C11.3369 4.53376 12.4397 3.95821 13.6369 3.75155C14.8341 3.54486 16.066 3.71739 17.1604 4.24501L14.2871 7.14076C14.0118 7.41909 13.8573 7.79476 13.8573 8.18626C13.8573 8.57776 14.0118 8.95347 14.2871 9.23176L14.9794 9.92964C15.1151 10.0668 15.2766 10.1758 15.4547 10.2501C15.6328 10.3245 15.8238 10.3627 16.0168 10.3627C16.2098 10.3627 16.4009 10.3245 16.5789 10.2501C16.757 10.1758 16.9185 10.0668 17.0543 9.92964L19.9275 7.03389C20.5115 8.2655 20.6545 9.66035 20.3325 10.9848C20.0106 12.3093 19.2432 13.4828 18.159 14.3089C17.3033 14.9567 16.2856 15.3563 15.2177 15.4637C14.1498 15.5711 13.073 15.3823 12.1054 14.9179L6.90676 20.1566C6.77108 20.2938 6.60957 20.4027 6.43152 20.4771C6.25347 20.5514 6.06244 20.5897 5.86951 20.5897C5.67657 20.5897 5.48554 20.5514 5.30749 20.4771C5.12944 20.4027 4.96793 20.2938 4.83226 20.1566L4.14001 19.4588C3.86446 19.1806 3.7099 18.8048 3.7099 18.4133C3.7099 18.0217 3.86446 17.646 4.14001 17.3678L9.33938 12.1275C8.81562 11.0242 8.64439 9.78631 8.84896 8.58219C9.05356 7.3781 9.62401 6.26622 10.4828 5.39776Z" stroke="#333333" stroke-width="2" stroke-linecap="round" stroke-linejoin="round"/>
</svg>
