<svg viewBox="0 0 200 200" xmlns="http://www.w3.org/2000/svg">
  <path fill="currentColor" d="M41.8,-67.9C56.2,-64.1,71.4,-57,79.1,-45.2C86.9,-33.3,87.2,-16.7,84.3,-1.7C81.4,13.3,75.4,26.7,67,37.5C58.7,48.3,48.1,56.7,36.6,63.9C25,71.2,12.5,77.4,-0.1,77.6C-12.7,77.8,-25.5,72,-39.4,66.1C-53.3,60.2,-68.4,54.2,-73.2,43.2C-78.1,32.1,-72.7,16.1,-72.5,0.1C-72.3,-15.8,-77.3,-31.7,-73.8,-45C-70.2,-58.3,-58.2,-69,-44.4,-73.3C-30.7,-77.5,-15.4,-75.2,-0.8,-73.7C13.7,-72.3,27.4,-71.7,41.8,-67.9Z" transform="translate(100 100)" />
</svg>