<svg width="20" height="20" viewBox="0 0 20 20" fill="none" xmlns="http://www.w3.org/2000/svg">
<g clip-path="url(#clip0_665_6706)">
<path d="M11.8182 2.72722C11.8182 1.72304 11.0042 0.909058 10 0.909058C8.99595 0.909058 8.18188 1.72304 8.18188 2.72722C8.18188 3.40007 8.5477 3.98714 9.09099 4.3016V7.57574H10.9092V4.3016C11.4524 3.98718 11.8182 3.40007 11.8182 2.72722Z" fill="#76B3E2"/>
<path d="M10 0.909058V7.57574H10.9091V4.3016C11.4524 3.98718 11.8182 3.40015 11.8182 2.72722C11.8182 1.72304 11.0041 0.909058 10 0.909058Z" fill="#5A8BB0"/>
<path d="M9.69695 9.39392H0V14.2424H9.69695V9.39392Z" fill="#76B3E2"/>
<path d="M19.9999 9.39392H10.303V14.2424H19.9999V9.39392Z" fill="#5A8BB0"/>
<path d="M12.7272 14.2424H7.27271V19.0909H12.7272V14.2424Z" fill="#76B3E2"/>
<path d="M12.7273 14.2424H10V19.0909H12.7273V14.2424Z" fill="#5A8BB0"/>
<path d="M18.1817 6.36365H1.81812V17.2727H18.1817V6.36365Z" fill="#A2CFE8"/>
<path d="M18.1818 6.36365H10V17.2727H18.1818V6.36365Z" fill="#70AEDE"/>
<path d="M7.57583 10.606C7.57583 11.2755 7.0331 11.8181 6.36372 11.8181C5.69435 11.8181 5.15161 11.2755 5.15161 10.606C5.15161 9.93658 5.69435 9.39392 6.36372 9.39392C7.03313 9.39392 7.57583 9.93658 7.57583 10.606Z" fill="#243E52"/>
<path d="M14.8485 10.606C14.8485 11.2755 14.3058 11.8181 13.6364 11.8181C12.967 11.8181 12.4243 11.2755 12.4243 10.606C12.4243 9.93658 12.9671 9.39392 13.6364 9.39392C14.3058 9.39392 14.8485 9.93658 14.8485 10.606Z" fill="#162836"/>
<path d="M7.27271 13.6364C7.27271 15.1425 8.49372 16.3636 9.99997 16.3636C11.5061 16.3636 12.7272 15.1425 12.7272 13.6364H7.27271Z" fill="#243E52"/>
<path d="M10 13.6364C10 15.1425 10 15.4545 10 16.3636C11.5062 16.3636 12.7273 15.1425 12.7273 13.6364H10Z" fill="#1E2E3B"/>
</g>
<defs>
<clipPath id="clip0_665_6706">
<rect width="20" height="20" fill="white"/>
</clipPath>
</defs>
</svg>
