<svg width="20" height="20" viewBox="0 0 20 20" fill="none" xmlns="http://www.w3.org/2000/svg">
<g clip-path="url(#clip0_652_5958)">
<path d="M2.52637 2.52641C2.99581 2.99585 3.63903 3.63907 4.40308 4.40312C6.73517 2.07103 10.5163 2.07103 12.8483 4.40312C15.1804 6.7352 15.1804 10.5163 12.8483 12.8484C15.6414 15.6415 18.1908 18.1909 19.4169 19.4169C20.1943 18.6395 20.1942 17.3792 19.4169 16.6018L15.9691 13.154C18.0236 9.82862 17.6092 5.41048 14.7251 2.52634C11.3565 -0.842172 5.89495 -0.842239 2.52637 2.52641Z" fill="#006DF0"/>
<path d="M4.40314 12.8484C2.07099 10.5163 2.07099 6.73523 4.40314 4.40314C3.6391 3.63916 2.99588 2.99587 2.52643 2.52643C-0.842144 5.89501 -0.842144 11.3566 2.52643 14.7252C5.41057 17.6093 9.82871 18.0237 13.1541 15.9692L16.6019 19.417C17.3793 20.1943 18.6396 20.1944 19.417 19.417C18.191 18.191 15.6416 15.6416 12.8485 12.8485C10.5163 15.1806 6.73523 15.1806 4.40314 12.8484Z" fill="#0052B4"/>
<path d="M7.63046 6.63525H5.63989V11.9434H7.63046V6.63525Z" fill="#FFDA44"/>
<path d="M11.6117 6.63525H9.62109V11.9434H11.6117V6.63525Z" fill="#FF5023"/>
<path d="M9.62094 4.64465H7.63037V11.9434H9.62094V4.64465Z" fill="#FF9811"/>
</g>
<defs>
<clipPath id="clip0_652_5958">
<rect width="20" height="20" fill="white"/>
</clipPath>
</defs>
</svg>
