<svg width="118" height="19" viewBox="0 0 118 19" fill="none" xmlns="http://www.w3.org/2000/svg">
<path d="M0 2.75511V0.279297H14.9547C15.0289 0.279297 15.1031 0.306978 15.1776 0.362654C15.2518 0.418329 15.2891 0.501685 15.2891 0.613036V2.00397C15.2891 2.3008 15.1958 2.50028 15.0104 2.60208C14.8244 2.70421 14.611 2.75511 14.3696 2.75511H9.44067V16.4974C9.44067 17.2393 9.29194 17.7958 8.99511 18.1664C8.69796 18.5377 8.27118 18.7225 7.71414 18.7225H6.7953C6.4612 18.7225 6.21947 18.644 6.07138 18.4862C5.92232 18.3287 5.84843 18.0828 5.84843 17.749V2.75511H0Z" fill="#231815"/>
<path d="M27.8751 16.5801C27.8751 17.3033 27.7449 17.8416 27.4853 18.1934C27.2251 18.5459 26.8445 18.7219 26.3435 18.7219H25.5358C25.2572 18.7219 25.0482 18.6478 24.9094 18.4992C24.7702 18.3509 24.7004 18.1193 24.7004 17.8037V12.0453C24.7004 11.4888 24.6584 10.9464 24.575 10.4176C24.4915 9.88887 24.3565 9.42088 24.1711 9.0127C23.9666 8.58638 23.688 8.24788 23.3357 7.9975C22.9828 7.74712 22.5373 7.62208 21.999 7.62208C20.8849 7.62208 20.1374 8.02104 19.7572 8.81831C19.3766 9.61591 19.1864 10.6267 19.1864 11.8506V18.4435H16.0117V0.27832H19.1864V6.3705C19.5387 6.1478 19.9661 5.9534 20.4674 5.78638C20.9684 5.61935 21.6184 5.53568 22.4169 5.53568C23.5679 5.53568 24.5007 5.71225 25.2158 6.06412C25.9301 6.41663 26.4827 6.88049 26.8729 7.45506C27.2627 8.04872 27.527 8.73464 27.6665 9.51346C27.806 10.2923 27.8755 11.109 27.8755 11.9613V16.5795L27.8751 16.5801Z" fill="#231815"/>
<path d="M34.0859 13.52H31.9138C32.0807 14.1693 32.3317 14.6793 32.6658 15.05C33.0002 15.4212 33.3801 15.7085 33.8076 15.9125C34.2347 16.0979 34.685 16.2185 35.1583 16.2742C35.6315 16.3296 36.0911 16.3575 36.5367 16.3575C37.4094 16.3575 38.175 16.265 38.8343 16.0792C39.4929 15.894 40.0547 15.6341 40.5191 15.3003C40.5372 15.2822 40.5653 15.2631 40.6025 15.2447C40.6395 15.2265 40.686 15.217 40.7417 15.217C40.8159 15.217 40.8901 15.2542 40.9647 15.328C41.0389 15.4022 41.0758 15.4947 41.0758 15.6064V16.6356C41.0758 17.0253 40.9226 17.3498 40.6162 17.6091C40.3098 17.8691 39.9063 18.0822 39.4047 18.2492C38.9219 18.416 38.3648 18.5368 37.7339 18.611C37.1027 18.6851 36.4711 18.722 35.8402 18.722C34.8188 18.722 33.8674 18.5785 32.9855 18.2906C32.1036 18.0033 31.3377 17.5722 30.6883 16.997C30.0382 16.4225 29.5277 15.7082 29.1567 14.8553C28.785 14.0023 28.5996 13.0189 28.5996 11.9067C28.5996 11.1275 28.7251 10.3586 28.9754 9.59758C29.2264 8.83721 29.6392 8.16084 30.215 7.56686C30.7717 6.97383 31.4912 6.48675 32.3731 6.10657C33.255 5.7267 34.327 5.53613 35.5898 5.53613C36.5364 5.53613 37.3766 5.66148 38.11 5.91154C38.8435 6.16224 39.4512 6.48198 39.934 6.87139C40.4165 7.27957 40.7837 7.72943 41.0341 8.22064C41.2847 8.71218 41.4099 9.20817 41.4099 9.70893C41.4099 10.2285 41.3077 10.7197 41.1035 11.1832C40.899 11.6468 40.5277 12.0553 39.9894 12.4071C39.4509 12.7412 38.7085 13.0103 37.7616 13.2139C36.8147 13.4182 35.5895 13.52 34.0856 13.52H34.0859ZM31.7743 11.6563H33.9187C35.4226 11.6563 36.5176 11.5084 37.2046 11.2115C37.8912 10.915 38.2352 10.3767 38.2352 9.5979C38.2352 9.02333 37.9887 8.53625 37.4973 8.13761C37.0052 7.73898 36.3507 7.5395 35.5341 7.5395C34.4757 7.5395 33.5846 7.88277 32.8607 8.56902C32.1364 9.25526 31.7743 10.2841 31.7743 11.6563Z" fill="#231815"/>
<path d="M59.9855 2.78251C59.0199 2.78251 58.1335 2.94031 57.3261 3.25527C56.5185 3.57087 55.8175 4.02519 55.2235 4.61821C54.6292 5.21187 54.1696 5.93979 53.8451 6.80196C53.5199 7.66446 53.3574 8.65198 53.3574 9.76454C53.3574 10.8036 53.5199 11.7256 53.8451 12.5324C54.1696 13.3392 54.6292 14.0207 55.2235 14.5771C55.8175 15.1333 56.5185 15.5507 57.3261 15.829C58.1335 16.1071 59.0202 16.2461 59.9855 16.2461C61.155 16.2461 62.1436 16.0931 62.9513 15.787C63.759 15.481 64.5059 15.0687 65.1932 14.5491C65.2301 14.531 65.267 14.5071 65.3043 14.4795C65.3413 14.4515 65.3878 14.4375 65.4435 14.4375C65.5177 14.4375 65.5827 14.4795 65.6384 14.5628C65.6938 14.6462 65.7219 14.7435 65.7219 14.8549V15.467C65.7219 16.1901 65.6426 16.7008 65.4852 16.997C65.3269 17.2938 65.1648 17.4977 64.9976 17.6091C64.2737 18.1098 63.4332 18.4671 62.4774 18.6799C61.521 18.8931 60.5977 19 59.7065 19C58.2399 19 56.8984 18.7817 55.6824 18.3462C54.4664 17.9107 53.4221 17.2846 52.5494 16.4685C51.6768 15.6712 51.0041 14.7022 50.5305 13.5616C50.0569 12.4211 49.8203 11.1552 49.8203 9.76422C49.8203 8.29948 50.0569 6.96422 50.5305 5.75844C51.0038 4.55331 51.6768 3.5241 52.5494 2.67052C53.4221 1.81789 54.4664 1.15933 55.6824 0.695469C56.8984 0.232248 58.2399 0 59.7065 0C60.5977 0 61.5258 0.106899 62.4914 0.319738C63.4564 0.533214 64.2918 0.899717 64.9976 1.41861C65.1645 1.56719 65.3269 1.78512 65.4852 2.07241C65.6426 2.36001 65.7219 2.84677 65.7219 3.53269V4.11681C65.7219 4.30229 65.6891 4.43209 65.6241 4.50622C65.5588 4.58035 65.4989 4.61725 65.4432 4.61725C65.4056 4.61725 65.3734 4.61312 65.3457 4.60326C65.3177 4.59403 65.2944 4.57112 65.276 4.53358C64.4963 3.92147 63.7115 3.47638 62.923 3.19832C62.1334 2.92026 61.1544 2.78123 59.9849 2.78123L59.9855 2.78251Z" fill="#231815"/>
<path d="M78.8654 16.5801C78.8654 17.3033 78.7351 17.8416 78.4755 18.1934C78.2153 18.5459 77.8347 18.7219 77.3338 18.7219H76.5261C76.2474 18.7219 76.0385 18.6478 75.8996 18.4992C75.7604 18.3509 75.6907 18.1193 75.6907 17.8037V12.0453C75.6907 11.4888 75.6486 10.9464 75.5652 10.4176C75.4817 9.88887 75.3467 9.42088 75.1613 9.0127C74.9569 8.58638 74.6782 8.24788 74.3259 7.9975C73.973 7.74712 73.5275 7.62208 72.9892 7.62208C71.8752 7.62208 71.1277 8.02104 70.7474 8.81831C70.3668 9.61591 70.1766 10.6267 70.1766 11.8506V18.4435H67.002V0.27832H70.1766V6.3705C70.5289 6.1478 70.9563 5.9534 71.4576 5.78638C71.9586 5.61935 72.6086 5.53568 73.4071 5.53568C74.5581 5.53568 75.491 5.71225 76.206 6.06412C76.9204 6.41663 77.4729 6.88049 77.8631 7.45506C78.2529 8.04872 78.5173 8.73464 78.6568 9.51346C78.7963 10.2923 78.8657 11.109 78.8657 11.9613V16.5795L78.8654 16.5801Z" fill="#231815"/>
<path d="M85.0762 13.52H82.904C83.0709 14.1693 83.3219 14.6793 83.656 15.05C83.9904 15.4212 84.3704 15.7085 84.7978 15.9125C85.2249 16.0979 85.6752 16.2185 86.1485 16.2742C86.6218 16.3296 87.0813 16.3575 87.5269 16.3575C88.3996 16.3575 89.1652 16.265 89.8245 16.0792C90.4832 15.894 91.045 15.6341 91.5093 15.3003C91.5275 15.2822 91.5555 15.2631 91.5928 15.2447C91.6297 15.2265 91.6762 15.217 91.7319 15.217C91.8061 15.217 91.8804 15.2542 91.9549 15.328C92.0291 15.4022 92.066 15.4947 92.066 15.6064V16.6356C92.066 17.0253 91.9128 17.3498 91.6065 17.6091C91.3001 17.8691 90.8965 18.0822 90.3949 18.2492C89.9121 18.416 89.3551 18.5368 88.7241 18.611C88.0929 18.6851 87.4613 18.722 86.8304 18.722C85.809 18.722 84.8577 18.5785 83.9758 18.2906C83.0939 18.0033 82.3279 17.5722 81.6785 16.997C81.0285 16.4225 80.5179 15.7082 80.1469 14.8553C79.7752 14.0023 79.5898 13.0189 79.5898 11.9067C79.5898 11.1275 79.7153 10.3586 79.9657 9.59758C80.2166 8.83721 80.6294 8.16084 81.2052 7.56686C81.7619 6.97383 82.4814 6.48675 83.3633 6.10657C84.2452 5.7267 85.3172 5.53613 86.5801 5.53613C87.5266 5.53613 88.3668 5.66148 89.1003 5.91154C89.8337 6.16224 90.4414 6.48198 90.9243 6.87139C91.4068 7.27957 91.774 7.72943 92.0243 8.22064C92.275 8.71218 92.4001 9.20817 92.4001 9.70893C92.4001 10.2285 92.2979 10.7197 92.0938 11.1832C91.8893 11.6468 91.5179 12.0553 90.9797 12.4071C90.4411 12.7412 89.6987 13.0103 88.7518 13.2139C87.805 13.4182 86.5797 13.52 85.0758 13.52H85.0762ZM82.7645 11.6563H84.9089C86.4128 11.6563 87.5078 11.5084 88.1948 11.2115C88.8815 10.915 89.2254 10.3767 89.2254 9.5979C89.2254 9.02333 88.9789 8.53625 88.4875 8.13761C87.9954 7.73898 87.3409 7.5395 86.5243 7.5395C85.466 7.5395 84.5748 7.88277 83.8509 8.56902C83.1267 9.25526 82.7645 10.2841 82.7645 11.6563Z" fill="#231815"/>
<path d="M100.364 7.90157C99.8068 7.90157 99.259 7.98493 98.7207 8.15195C98.1818 8.31866 97.6993 8.57891 97.2725 8.93077C96.8451 9.26483 96.5069 9.6956 96.2559 10.2244C96.0053 10.7528 95.8801 11.3789 95.8801 12.1021C95.8801 12.8252 96.0056 13.4561 96.2559 13.9937C96.5069 14.5321 96.8451 14.9771 97.2725 15.329C97.6993 15.6815 98.1818 15.9411 98.7207 16.1078C99.259 16.2749 99.8068 16.3585 100.364 16.3585C101.088 16.3585 101.723 16.2659 102.271 16.0802C102.819 15.895 103.325 15.6351 103.789 15.3013C103.807 15.2832 103.835 15.2641 103.872 15.2457C103.909 15.2275 103.956 15.218 104.011 15.218C104.086 15.218 104.16 15.2552 104.234 15.329C104.308 15.4031 104.346 15.4957 104.346 15.6074V16.6366C104.346 17.0263 104.197 17.3508 103.9 17.6101C103.603 17.87 103.222 18.0832 102.758 18.2502C102.294 18.4169 101.788 18.5378 101.241 18.612C100.693 18.6861 100.169 18.723 99.6673 18.723C98.6274 18.723 97.6805 18.5655 96.827 18.2502C95.9728 17.9349 95.2396 17.4899 94.6268 16.915C94.0141 16.3216 93.5405 15.6214 93.2064 14.8146C92.8723 14.0081 92.7051 13.1039 92.7051 12.1024C92.7051 11.2125 92.8723 10.3736 93.2064 9.58488C93.5405 8.79684 94.0141 8.09659 94.6268 7.48448C95.2396 6.89114 95.9725 6.41837 96.827 6.06555C97.6808 5.71368 98.6274 5.53711 99.6673 5.53711C100.169 5.53711 100.693 5.58356 101.241 5.67614C101.788 5.76935 102.294 5.89884 102.758 6.06555C103.222 6.23257 103.603 6.44605 103.9 6.70566C104.197 6.96559 104.346 7.27164 104.346 7.62351V8.65303C104.346 8.78315 104.308 8.88019 104.234 8.94509C104.16 9.01031 104.086 9.04244 104.011 9.04244C103.956 9.04244 103.909 9.03799 103.872 9.02844C103.835 9.01922 103.798 8.99631 103.761 8.95877C103.334 8.64349 102.842 8.38833 102.285 8.19395C101.728 7.99924 101.087 7.90189 100.363 7.90189L100.364 7.90157Z" fill="#231815"/>
<path d="M108.524 0.278956V10.3769C109.063 10.3769 109.596 10.2754 110.126 10.0709C110.655 9.86724 111.133 9.57964 111.56 9.20868C112.005 8.83772 112.386 8.40186 112.702 7.90142C113.017 7.40065 113.231 6.85376 113.342 6.2601L113.426 5.81502H116.656L116.573 6.2601C116.368 7.3173 115.997 8.2816 115.459 9.153C114.92 10.025 114.187 10.7386 113.259 11.2951C114.372 11.7774 115.264 12.4216 115.932 13.2281C116.601 14.035 116.999 14.9299 117.13 15.9127L117.213 16.5804C117.213 17.3036 117.083 17.8419 116.823 18.1938C116.563 18.5463 116.182 18.7222 115.681 18.7222H114.874C114.595 18.7222 114.386 18.6481 114.247 18.4995C114.108 18.3512 114.038 18.1196 114.038 17.804L113.899 16.8582C113.769 16.0237 113.532 15.3238 113.189 14.7581C112.846 14.1924 112.423 13.7426 111.922 13.4088C111.439 13.0748 110.905 12.834 110.321 12.6854C109.736 12.5371 109.137 12.4627 108.524 12.4627V18.4435H105.35V0.27832H108.524V0.278956Z" fill="#231815"/>
</svg>
